<svg width="52" height="259" viewBox="0 0 52 259" fill="none" xmlns="http://www.w3.org/2000/svg">
<path d="M11.25 245.125C10.9167 244.917 10.625 244.792 10.375 244.75C10.0833 244.708 9.77083 244.583 9.4375 244.375C8.97917 243.542 8.4375 242.792 7.8125 242.125C7.14583 241.458 6.60417 240.688 6.1875 239.812C5.77083 239.229 5.5 238.771 5.375 238.438C5.20833 238.062 5 237.708 4.75 237.375C4.58333 237 4.41667 236.646 4.25 236.312C4.08333 235.938 3.9375 235.521 3.8125 235.062C3.72917 234.729 3.625 234.438 3.5 234.188C3.33333 233.938 3.20833 233.688 3.125 233.438C2.91667 232.854 2.72917 232.271 2.5625 231.688C2.39583 231.104 2.22917 230.542 2.0625 230C1.97917 229.792 1.875 229.542 1.75 229.25C1.625 228.958 1.58333 228.688 1.625 228.438C1.70833 227.979 1.72917 227.708 1.6875 227.625C1.64583 227.5 1.625 227.396 1.625 227.312C1.58333 226.979 1.625 226.708 1.75 226.5C1.875 226.25 1.97917 225.979 2.0625 225.688C2.14583 225.438 2.20833 225.208 2.25 225C2.29167 224.75 2.35417 224.521 2.4375 224.312C2.52083 224.104 2.64583 223.938 2.8125 223.812C2.9375 223.646 3.0625 223.5 3.1875 223.375C3.27083 223.208 3.375 223.062 3.5 222.938C3.625 222.771 3.75 222.604 3.875 222.438C4.58333 222.104 5.29167 221.729 6 221.312C6.70833 220.896 7.5625 220.688 8.5625 220.688C8.9375 220.938 9.125 221.083 9.125 221.125C9.125 221.167 9.16667 221.208 9.25 221.25C9.54167 221.708 9.8125 222.042 10.0625 222.25C10.2708 222.458 10.5 222.688 10.75 222.938L11.625 223.812C11.7083 223.938 11.7917 224.083 11.875 224.25C11.9167 224.417 12.0417 224.521 12.25 224.562C12.4167 224.896 12.625 225.167 12.875 225.375C13.125 225.583 13.3125 225.854 13.4375 226.188C13.8958 226.562 14.2708 227.021 14.5625 227.562C14.8125 228.104 15.1042 228.604 15.4375 229.062C15.7292 229.521 15.9167 229.833 16 230C16.0833 230.125 16.1875 230.25 16.3125 230.375C16.5208 230.833 16.7292 231.25 16.9375 231.625C17.1458 231.958 17.3333 232.354 17.5 232.812C17.5833 233.021 17.6875 233.229 17.8125 233.438C17.9375 233.604 17.9792 233.833 17.9375 234.125C17.8542 234.333 17.7708 234.542 17.6875 234.75C17.5625 234.958 17.6458 235.146 17.9375 235.312C18.0208 235.854 17.9375 236.375 17.6875 236.875C17.3958 237.333 17 237.583 16.5 237.625C16.0833 238.125 15.5208 238.271 14.8125 238.062C14.4792 237.979 14.1458 237.833 13.8125 237.625C13.4792 237.375 13.1667 237.167 12.875 237C12.5 236.792 12.1458 236.604 11.8125 236.438C11.4375 236.271 11.0833 236.083 10.75 235.875C10.125 235.292 9.54167 234.708 9 234.125C8.45833 233.5 8.08333 232.729 7.875 231.812C7.79167 231.521 7.70833 231.229 7.625 230.938C7.54167 230.646 7.45833 230.375 7.375 230.125C7.45833 230 7.45833 229.875 7.375 229.75C7.29167 229.625 7.29167 229.5 7.375 229.375C7.5 229.208 7.64583 229.146 7.8125 229.188C7.97917 229.229 8.16667 229.25 8.375 229.25C8.54167 229.375 8.66667 229.542 8.75 229.75C8.79167 229.958 8.85417 230.167 8.9375 230.375C8.97917 230.542 9.0625 230.708 9.1875 230.875C9.27083 231.042 9.4375 231.146 9.6875 231.188C10.6875 232.354 11.9375 233.396 13.4375 234.312C13.5208 234.188 13.625 234.021 13.75 233.812C13.875 233.604 13.9583 233.396 14 233.188C14.0833 232.854 14 232.479 13.75 232.062C13.5 231.604 13.3125 231.25 13.1875 231C12.6458 229.833 11.9167 228.792 11 227.875C10.7917 227.625 10.5625 227.375 10.3125 227.125C10.0625 226.833 9.8125 226.625 9.5625 226.5C9.35417 226.333 9.14583 226.188 8.9375 226.062C8.72917 225.938 8.5625 225.771 8.4375 225.562C8.0625 225.521 7.77083 225.583 7.5625 225.75C7.3125 225.875 7.08333 226.042 6.875 226.25C6.625 226.417 6.39583 226.604 6.1875 226.812C5.97917 227.021 5.72917 227.167 5.4375 227.25C5.35417 227.458 5.20833 227.646 5 227.812C4.79167 227.938 4.64583 228.104 4.5625 228.312C4.5625 228.396 4.54167 228.583 4.5 228.875C4.45833 229.125 4.4375 229.271 4.4375 229.312C4.64583 230.354 4.875 231.167 5.125 231.75C5.375 232.333 5.625 232.917 5.875 233.5C6.625 234.917 7.5 236.229 8.5 237.438C8.58333 237.562 8.66667 237.708 8.75 237.875C8.83333 238.042 8.91667 238.167 9 238.25C9.16667 238.458 9.375 238.646 9.625 238.812C9.875 238.938 10.125 239.104 10.375 239.312C10.6667 239.521 10.9583 239.75 11.25 240C11.5 240.208 11.7917 240.354 12.125 240.438C12.25 240.688 12.5 240.854 12.875 240.938C13.2083 241.021 13.4792 241.167 13.6875 241.375C14.0208 241.458 14.3333 241.562 14.625 241.688C14.875 241.812 15.1875 241.917 15.5625 242C16.3125 241.625 16.8958 241.354 17.3125 241.188C17.7292 240.979 18.1458 240.771 18.5625 240.562C19.0208 240.521 19.4375 240.396 19.8125 240.188C20.1458 239.938 20.5417 239.708 21 239.5C21.9583 238.917 22.9792 238.396 24.0625 237.938C25.1042 237.438 26.1042 236.896 27.0625 236.312C27.6458 236.062 28.2292 235.833 28.8125 235.625C29.3542 235.375 29.8333 235.021 30.25 234.562C30.5417 234.479 30.8333 234.375 31.125 234.25C31.375 234.083 31.6458 233.938 31.9375 233.812C32.4375 233.646 32.9792 233.417 33.5625 233.125C33.8958 233 34.1875 232.854 34.4375 232.688C34.6875 232.521 34.9375 232.396 35.1875 232.312C35.5625 232.146 36.0417 232.021 36.625 231.938C37.1667 231.812 37.625 231.771 38 231.812C38.4167 231.812 38.7083 231.833 38.875 231.875C39.0417 231.917 39.1875 231.979 39.3125 232.062C39.3958 232.146 39.5 232.229 39.625 232.312C39.75 232.396 40 232.479 40.375 232.562C41.0417 232.938 41.6458 233.375 42.1875 233.875C42.7292 234.375 43.3542 234.812 44.0625 235.188C44.3958 235.438 44.6875 235.708 44.9375 236C45.1875 236.292 45.4375 236.583 45.6875 236.875C45.8958 237.167 46.0833 237.479 46.25 237.812C46.4167 238.104 46.625 238.375 46.875 238.625C47.5 239.333 47.9583 240.083 48.25 240.875C48.5 241.625 48.8542 242.333 49.3125 243C49.3125 243.25 49.3333 243.5 49.375 243.75C49.4583 244 49.5417 244.25 49.625 244.5C49.7083 244.708 49.7917 244.938 49.875 245.188C49.9583 245.396 50.0417 245.625 50.125 245.875C50.2083 246.083 50.2917 246.271 50.375 246.438C50.4583 246.562 50.5417 246.729 50.625 246.938C50.75 247.521 50.8125 248.146 50.8125 248.812C50.8542 249.479 50.7917 250.167 50.625 250.875C50.3333 251.667 50.2083 252.292 50.25 252.75C50.2917 253.167 50.125 253.542 49.75 253.875C49.6667 254.083 49.5625 254.208 49.4375 254.25C49.3125 254.25 49.1875 254.333 49.0625 254.5C48.6875 254.958 48.4583 255.25 48.375 255.375C48.2917 255.5 48.1875 255.625 48.0625 255.75C47.5625 256.375 46.9792 256.875 46.3125 257.25C46.1042 257.375 45.8958 257.5 45.6875 257.625C45.4792 257.75 45.2917 257.833 45.125 257.875C44.875 257.958 44.625 257.958 44.375 257.875C44.0833 257.833 43.8125 257.896 43.5625 258.062C43.2708 258.021 42.9583 258.021 42.625 258.062C42.2917 258.104 42 258.125 41.75 258.125C41.375 258.125 41 258.062 40.625 257.938C40.25 257.854 39.9583 257.875 39.75 258C39.2083 257.917 38.8125 257.792 38.5625 257.625C38.2708 257.458 37.9583 257.25 37.625 257C37.2917 256.292 37 255.708 36.75 255.25C36.4583 254.75 36.1875 254.25 35.9375 253.75C35.8542 253.542 35.7708 253.375 35.6875 253.25C35.6042 253.083 35.5208 252.917 35.4375 252.75C35.2292 252.375 35.0625 251.979 34.9375 251.562C34.8125 251.146 34.6458 250.708 34.4375 250.25C34.2292 249.875 34.0417 249.5 33.875 249.125C33.7083 248.708 33.5208 248.312 33.3125 247.938C33.3125 247.688 33.25 247.458 33.125 247.25C33 247 32.9375 246.729 32.9375 246.438C32.9375 246.354 32.9583 246.25 33 246.125C33 246 33 245.875 33 245.75C33 245.542 33 245.312 33 245.062C33 244.812 33.0417 244.583 33.125 244.375C33.2083 244.167 33.3333 243.979 33.5 243.812C33.6667 243.646 33.75 243.417 33.75 243.125C34.0417 242.833 34.375 242.604 34.75 242.438C35.0833 242.229 35.4375 242.062 35.8125 241.938C36.0208 241.854 36.3125 241.792 36.6875 241.75C37.0625 241.667 37.375 241.625 37.625 241.625C38.25 241.667 38.7292 241.896 39.0625 242.312C39.3958 242.688 39.7917 243.042 40.25 243.375C40.4583 243.958 40.8125 244.604 41.3125 245.312C41.2708 245.729 41.3542 246.104 41.5625 246.438C41.7292 246.771 41.875 247.167 42 247.625C42.0417 247.833 42.0417 248.062 42 248.312C41.9583 248.562 41.9792 248.792 42.0625 249C42.1042 249.208 42.1875 249.417 42.3125 249.625C42.4375 249.833 42.4583 250.042 42.375 250.25C42.2917 250.458 42.125 250.625 41.875 250.75C41.625 250.833 41.375 250.833 41.125 250.75C40.7083 250.5 40.4583 250.146 40.375 249.688C40.25 249.188 40.0625 248.708 39.8125 248.25C39.6042 247.833 39.3333 247.479 39 247.188C38.6667 246.854 38.3333 246.521 38 246.188C37.75 245.979 37.5 245.729 37.25 245.438C37 245.146 36.6667 245.083 36.25 245.25C35.9583 245.625 35.875 246.062 36 246.562C36.125 247.021 36.2708 247.438 36.4375 247.812C36.7708 248.562 37.125 249.312 37.5 250.062C37.875 250.771 38.2292 251.479 38.5625 252.188C38.6875 252.521 38.8333 252.771 39 252.938C39.125 253.021 39.2917 253.083 39.5 253.125C39.7083 253.167 39.8958 253.229 40.0625 253.312C40.6875 253.604 41.3125 253.688 41.9375 253.562C42.1458 253.479 42.3542 253.375 42.5625 253.25C42.7292 253.125 42.9167 253.062 43.125 253.062C43.2917 252.896 43.4583 252.75 43.625 252.625C43.75 252.5 43.8958 252.375 44.0625 252.25C44.1458 252.125 44.2083 252.021 44.25 251.938C44.25 251.854 44.2708 251.729 44.3125 251.562C44.5625 251.146 44.7917 250.646 45 250.062C45.0833 249.812 45.2083 249.438 45.375 248.938C45.5417 248.396 45.625 248.021 45.625 247.812C45.6667 247.604 45.625 247.333 45.5 247C45.375 246.667 45.2708 246.375 45.1875 246.125C44.7292 245.167 44.25 244.188 43.75 243.188C43.25 242.188 42.7708 241.208 42.3125 240.25C42.1042 239.917 41.875 239.604 41.625 239.312C41.3333 239.021 41.0208 238.771 40.6875 238.562C40.2292 238.188 39.6667 237.875 39 237.625C38.3333 237.375 37.6458 237.188 36.9375 237.062C36.7708 237.021 36.625 237 36.5 237C36.3333 237 36.1875 237 36.0625 237C35.6042 237.25 35.3333 237.375 35.25 237.375C35.125 237.333 35.0208 237.354 34.9375 237.438C34.4375 237.729 34.1042 237.917 33.9375 238C33.7292 238.042 33.5417 238.104 33.375 238.188C32.9167 238.479 32.5208 238.833 32.1875 239.25C31.8542 239.667 31.3542 239.938 30.6875 240.062C30.4792 240.312 30.2083 240.5 29.875 240.625C29.5417 240.708 29.3333 240.917 29.25 241.25C29.0417 241.333 28.875 241.417 28.75 241.5C28.5833 241.542 28.375 241.604 28.125 241.688C27.8333 241.938 27.5208 242.125 27.1875 242.25C26.9792 242.5 26.75 242.708 26.5 242.875C26.25 243.042 25.9792 243.229 25.6875 243.438C25.3542 243.771 25.1042 244 24.9375 244.125C24.7292 244.292 24.5 244.438 24.25 244.562C24 244.646 23.7708 244.792 23.5625 245C23.3542 245.125 23.1667 245.292 23 245.5C22.8333 245.667 22.625 245.792 22.375 245.875C22 246.208 21.5833 246.479 21.125 246.688C20.625 246.896 20.0833 247.062 19.5 247.188C19 247.104 18.5625 247.188 18.1875 247.438C17.8125 247.688 17.3333 247.75 16.75 247.625C16.1667 247.417 15.5833 247.188 15 246.938C14.4167 246.688 13.875 246.479 13.375 246.312C13.2917 246.104 13.1458 245.979 12.9375 245.938C12.6875 245.896 12.4583 245.833 12.25 245.75L11.25 245.125ZM31.625 207.812C31.75 207.771 32 207.812 32.375 207.938C32.625 208.146 32.8958 208.271 33.1875 208.312C33.3542 208.396 33.5 208.479 33.625 208.562C33.75 208.604 33.9167 208.646 34.125 208.688C34.375 208.771 34.6667 208.812 35 208.812C35.3333 208.771 35.6458 208.771 35.9375 208.812C36.3958 208.896 36.8542 208.958 37.3125 209C37.7292 209.042 38.1667 209.083 38.625 209.125C39.0833 209.125 39.6042 209.167 40.1875 209.25C40.7708 209.333 41.2917 209.417 41.75 209.5C42.0417 209.333 42.3542 209.229 42.6875 209.188C43.0208 209.146 43.2917 209 43.5 208.75C43.375 207.917 43.1875 207.25 42.9375 206.75C42.6458 206.25 42.25 205.771 41.75 205.312C41.5833 204.938 41.4375 204.688 41.3125 204.562C41.1875 204.396 41.0208 204.146 40.8125 203.812C40.7292 203.729 40.6458 203.646 40.5625 203.562C40.4792 203.479 40.3958 203.396 40.3125 203.312C40.0625 202.854 39.8958 202.583 39.8125 202.5C39.7292 202.375 39.6458 202.229 39.5625 202.062C39.1042 201.354 38.625 200.812 38.125 200.438C37.8333 200.062 37.5833 199.812 37.375 199.688C37.125 199.521 36.8958 199.188 36.6875 198.688C36.3542 198.396 36.0833 198.104 35.875 197.812C35.625 197.479 35.3333 197.167 35 196.875C35 196.667 35.0417 196.5 35.125 196.375C35.2083 196.25 35.2917 196.104 35.375 195.938C35.7083 195.812 36.0625 195.792 36.4375 195.875C36.7708 195.958 37.0833 196.104 37.375 196.312C37.6667 196.521 37.8333 196.625 37.875 196.625C37.9167 196.625 37.9583 196.646 38 196.688C38.1667 196.812 38.3333 196.979 38.5 197.188C38.625 197.354 38.7708 197.5 38.9375 197.625C39.3125 197.833 39.5 198 39.5 198.125C39.5 198.25 39.5417 198.354 39.625 198.438C39.8333 198.812 40 199.083 40.125 199.25C40.25 199.375 40.4167 199.604 40.625 199.938C40.875 200.396 41.0417 200.667 41.125 200.75C41.2083 200.833 41.2708 200.917 41.3125 201C41.8958 201.542 42.375 202.042 42.75 202.5C43.0833 202.917 43.5417 203.375 44.125 203.875C44.25 204.042 44.375 204.208 44.5 204.375C44.625 204.542 44.7917 204.688 45 204.812C45.25 205.188 45.5 205.5 45.75 205.75C46 205.958 46.2917 206.208 46.625 206.5C46.75 206.75 46.9375 207.021 47.1875 207.312C47.3958 207.604 47.5833 207.917 47.75 208.25C47.8333 208.417 47.9375 208.604 48.0625 208.812C48.1458 208.979 48.1875 209.167 48.1875 209.375C48.2708 209.875 48.2292 210.333 48.0625 210.75C47.8958 211.167 47.7708 211.562 47.6875 211.938C47.4375 212.104 47.2292 212.312 47.0625 212.562C46.6042 212.938 46.0625 213.208 45.4375 213.375C44.8125 213.542 44.1458 213.708 43.4375 213.875C43.6458 214.208 43.9167 214.521 44.25 214.812C44.5833 215.104 44.8542 215.479 45.0625 215.938C45.8542 216.771 46.625 217.667 47.375 218.625C48.0833 219.542 48.8333 220.479 49.625 221.438C49.75 221.562 49.8542 221.688 49.9375 221.812C50.0208 221.938 50.0417 222.042 50 222.125C50.25 222.333 50.3958 222.625 50.4375 223C50.5208 223.333 50.5208 223.708 50.4375 224.125C50.2292 224.542 50.0833 224.917 50 225.25C49.9167 225.583 49.7917 225.917 49.625 226.25C49.5 226.958 49.1875 227.542 48.6875 228C48.1875 228.5 47.6042 228.917 46.9375 229.25C46.6042 229.375 46.2917 229.458 46 229.5C45.7083 229.583 45.375 229.667 45 229.75C44.6667 229.792 44.3958 229.854 44.1875 229.938C43.9375 230.021 43.7083 230.021 43.5 229.938C43.375 230.021 43.25 230.042 43.125 230C42.9583 229.958 42.7917 229.938 42.625 229.938C42.0417 229.979 41.4167 229.917 40.75 229.75C40.0833 229.625 39.4792 229.438 38.9375 229.188C38.7708 229.104 38.5625 228.938 38.3125 228.688C38.1875 228.604 38.0625 228.542 37.9375 228.5C37.8125 228.458 37.7083 228.396 37.625 228.312C37.5 228.229 37.375 228.104 37.25 227.938C37.125 227.771 37 227.625 36.875 227.5C36.5833 227.292 36.3333 227.062 36.125 226.812C35.875 226.521 35.625 226.25 35.375 226C35.25 225.875 35.1042 225.771 34.9375 225.688C34.7708 225.562 34.6458 225.396 34.5625 225.188C34.2708 225.021 34.0417 224.833 33.875 224.625C33.6667 224.417 33.4583 224.188 33.25 223.938C32.375 223.229 31.6458 222.354 31.0625 221.312C30.4792 220.271 29.8125 219.333 29.0625 218.5C28.9375 218.208 28.7917 217.958 28.625 217.75C28.4583 217.542 28.2917 217.333 28.125 217.125C27.6667 216.583 27.5208 216.021 27.6875 215.438C27.8542 214.854 28 214.312 28.125 213.812C28.5 213.396 28.875 213 29.25 212.625C29.625 212.208 30.0417 211.854 30.5 211.562C30.4583 211.271 30.4583 210.938 30.5 210.562C30.5 210.188 30.4583 209.792 30.375 209.375C30.375 209.25 30.3542 209.125 30.3125 209C30.2292 208.875 30.1875 208.771 30.1875 208.688C30.3958 208.062 30.7083 207.75 31.125 207.75L31.625 207.812ZM32.0625 216C32.6042 217.125 33.25 218.146 34 219.062C34.7083 219.979 35.4792 220.854 36.3125 221.688C36.5208 221.896 36.7292 222.125 36.9375 222.375C37.1042 222.583 37.2917 222.771 37.5 222.938C37.7083 223.104 37.9583 223.271 38.25 223.438C38.5417 223.562 38.8125 223.688 39.0625 223.812C39.2292 223.896 39.375 223.979 39.5 224.062C39.5833 224.146 39.6875 224.229 39.8125 224.312C40.0208 224.396 40.2292 224.438 40.4375 224.438C40.6458 224.396 40.875 224.375 41.125 224.375C41.3333 224.375 41.5417 224.375 41.75 224.375C41.9583 224.375 42.1667 224.354 42.375 224.312C42.8333 224.188 43.2917 224.125 43.75 224.125C44.0833 224.125 44.5 224.104 45 224.062C45.4583 223.979 45.7708 223.812 45.9375 223.562C46.1042 223.312 46.1458 223.062 46.0625 222.812C45.9792 222.521 45.9167 222.271 45.875 222.062C44.75 220.604 43.5833 219.229 42.375 217.938C41.125 216.646 39.7292 215.5 38.1875 214.5C37.1042 214.583 36.0625 214.604 35.0625 214.562C34.0208 214.479 33.0625 214.562 32.1875 214.812C32.1042 214.979 32.0833 215.188 32.125 215.438C32.125 215.646 32.1042 215.833 32.0625 216ZM39.3125 194.312C39.4792 194.229 39.7083 194.271 40 194.438C40.2917 194.562 40.5417 194.667 40.75 194.75C40.9167 194.708 41.0625 194.667 41.1875 194.625C41.2708 194.583 41.3958 194.604 41.5625 194.688C41.7708 194.396 42.0208 194.208 42.3125 194.125C42.5625 194.042 42.8333 193.896 43.125 193.688C43.375 193.479 43.5833 193.271 43.75 193.062C43.9167 192.812 44.1042 192.583 44.3125 192.375C44.1875 192.167 44.125 192 44.125 191.875C44.125 191.75 44.0833 191.583 44 191.375C43.5 191 42.9167 190.708 42.25 190.5C42.0833 190.458 41.8958 190.417 41.6875 190.375C41.4792 190.333 41.2917 190.312 41.125 190.312C40.5417 190.354 39.9792 190.521 39.4375 190.812C38.8958 191.104 38.3333 191.333 37.75 191.5C37.4167 191.667 37.0417 191.729 36.625 191.688C36.2083 191.604 35.8333 191.604 35.5 191.688C35.2917 191.729 35.125 191.792 35 191.875C34.875 191.958 34.7292 192.042 34.5625 192.125C34.2292 192.208 33.8542 192.25 33.4375 192.25C33.0208 192.208 32.6667 192.292 32.375 192.5C32.5417 192.667 32.8542 192.938 33.3125 193.312C33.7708 193.688 34.2708 194.083 34.8125 194.5C35.3542 194.917 35.8542 195.312 36.3125 195.688C36.7708 196.021 37.0833 196.271 37.25 196.438C37.5417 196.646 37.8125 196.875 38.0625 197.125C38.2708 197.375 38.5208 197.604 38.8125 197.812C39.0208 197.979 39.375 198.271 39.875 198.688C40.3333 199.062 40.8333 199.458 41.375 199.875C41.9167 200.292 42.4375 200.667 42.9375 201C43.3958 201.375 43.7083 201.625 43.875 201.75C44 201.833 44.3125 202.042 44.8125 202.375C45.3125 202.75 45.8542 203.146 46.4375 203.562C47.0208 204.021 47.5625 204.417 48.0625 204.75C48.5625 205.125 48.8958 205.354 49.0625 205.438C49.4792 205.688 49.8333 206 50.125 206.375C50.4583 206.792 50.625 207.271 50.625 207.812C50.5833 207.854 50.4583 207.896 50.25 207.938C50.0833 207.979 49.8958 208 49.6875 208C49.4792 208.042 49.2708 208.083 49.0625 208.125C48.8958 208.208 48.7708 208.271 48.6875 208.312C48.4375 208.188 48.1875 208.083 47.9375 208C47.6875 207.958 47.4583 207.792 47.25 207.5C46.9583 207.417 46.5 207.167 45.875 206.75C45.2083 206.333 44.5208 205.875 43.8125 205.375C43.1042 204.875 42.4375 204.396 41.8125 203.938C41.1875 203.521 40.75 203.229 40.5 203.062C40.3333 202.896 40.0208 202.625 39.5625 202.25C39.1042 201.875 38.625 201.5 38.125 201.125C37.5833 200.75 37.0833 200.396 36.625 200.062C36.1667 199.688 35.8333 199.417 35.625 199.25C35.25 199.125 34.75 198.854 34.125 198.438C33.4583 198.021 32.7917 197.562 32.125 197.062C31.4167 196.562 30.75 196.083 30.125 195.625C29.5 195.125 29 194.75 28.625 194.5C28.2917 194.292 28 194.125 27.75 194C27.5 193.833 27.2292 193.667 26.9375 193.5C26.8542 193.417 26.7708 193.333 26.6875 193.25C26.5625 193.167 26.4583 193.104 26.375 193.062C26.0417 192.979 25.8125 193.021 25.6875 193.188C25.5208 193.354 25.2917 193.417 25 193.375C24.3333 193.042 23.8958 192.688 23.6875 192.312C23.4375 191.896 23.0833 191.521 22.625 191.188C22.4583 190.979 22.3333 190.792 22.25 190.625C22.1667 190.417 22.0208 190.208 21.8125 190C21.6458 189.833 21.5625 189.625 21.5625 189.375C21.5208 189.125 21.5417 188.896 21.625 188.688C21.6667 188.438 21.75 188.229 21.875 188.062C21.9583 187.854 22.0417 187.729 22.125 187.688C22.25 187.646 22.4167 187.646 22.625 187.688C22.8333 187.729 23.0417 187.771 23.25 187.812C23.625 187.896 23.9792 187.979 24.3125 188.062C24.6042 188.146 24.9375 188.229 25.3125 188.312C25.7708 188.396 26.2083 188.479 26.625 188.562C27.0417 188.604 27.4375 188.458 27.8125 188.125C28.0208 188.167 28.2708 188.167 28.5625 188.125C28.8542 188.042 29.125 187.958 29.375 187.875C30.7083 187.792 32.0417 187.562 33.375 187.188C34.6667 186.771 35.8542 186.333 36.9375 185.875C37.1458 185.875 37.3542 185.854 37.5625 185.812C37.7708 185.729 37.9792 185.646 38.1875 185.562C39.5208 185.438 40.8542 185.562 42.1875 185.938C43.4792 186.312 44.75 186.667 46 187C46.4167 187.25 46.8958 187.458 47.4375 187.625C47.6875 187.708 47.8958 187.792 48.0625 187.875C48.2292 187.958 48.4167 188.083 48.625 188.25C48.9583 188.458 49.3333 188.646 49.75 188.812C50.1667 188.979 50.5 189.312 50.75 189.812C50.8333 190.104 50.8333 190.396 50.75 190.688C50.6667 190.938 50.6667 191.188 50.75 191.438C50.7917 191.646 50.8333 191.833 50.875 192C50.9583 192.167 51 192.333 51 192.5C51.0833 193.042 51.0208 193.5 50.8125 193.875C50.6458 194.208 50.5208 194.625 50.4375 195.125C50.3125 195.125 50.2083 195.188 50.125 195.312C50.0833 195.438 50.0208 195.542 49.9375 195.625C49.2708 195.792 48.7917 195.958 48.5 196.125C48.2083 196.292 47.8958 196.417 47.5625 196.5C47.1042 196.625 46.6667 196.688 46.25 196.688C45.7917 196.688 45.3333 196.792 44.875 197C44.5417 197.167 44.3125 197.25 44.1875 197.25C44.0625 197.208 43.9375 197.188 43.8125 197.188C43.2708 197.188 42.6875 197.229 42.0625 197.312C41.3958 197.354 40.8542 197.083 40.4375 196.5C40.2708 196.292 40.0625 196.146 39.8125 196.062C39.5208 195.938 39.2708 195.75 39.0625 195.5C38.9792 195.417 38.9375 195.292 38.9375 195.125C38.9375 194.917 38.9583 194.771 39 194.688L39.3125 194.312ZM14 162.375C14.0833 161.833 14.1458 161.375 14.1875 161C14.2292 160.625 14.2708 160.292 14.3125 160C14.3125 159.667 14.3125 159.333 14.3125 159C14.2708 158.667 14.2083 158.25 14.125 157.75C14 156.833 13.8958 156.021 13.8125 155.312C13.6875 154.562 13.5833 153.75 13.5 152.875C13.4583 152.625 13.4583 152.375 13.5 152.125C13.5417 151.833 13.5625 151.562 13.5625 151.312C13.5625 150.771 13.5417 150.25 13.5 149.75C13.4583 149.208 13.4167 148.708 13.375 148.25C13.3333 148.083 13.2917 147.938 13.25 147.812C13.2083 147.688 13.2083 147.562 13.25 147.438C13.25 147.062 13.25 146.688 13.25 146.312C13.2083 145.938 13.3333 145.604 13.625 145.312C14.0417 145.188 14.2708 145.146 14.3125 145.188C14.3542 145.229 14.4167 145.271 14.5 145.312C15.0417 145.354 15.3125 145.438 15.3125 145.562C15.3125 145.646 15.3542 145.688 15.4375 145.688C15.5208 146.021 15.6042 146.312 15.6875 146.562C15.7292 146.771 15.8542 146.938 16.0625 147.062C16.2292 147.771 16.2708 148.438 16.1875 149.062C16.0625 149.646 16.1458 150.25 16.4375 150.875C16.5625 151.167 16.7292 151.479 16.9375 151.812C17.1042 152.104 17.1042 152.479 16.9375 152.938C16.9375 153.354 16.9583 153.833 17 154.375C17.0417 154.917 17.0833 155.438 17.125 155.938C17.2083 156.896 17.2917 157.729 17.375 158.438C17.4167 159.104 17.4583 159.75 17.5 160.375C17.5 161 17.5208 161.646 17.5625 162.312C17.6042 162.938 17.625 163.708 17.625 164.625C17.9167 164.958 18.2708 165.188 18.6875 165.312C19.1042 165.396 19.4375 165.604 19.6875 165.938C20.4792 166.271 21.0208 166.542 21.3125 166.75C21.5625 166.958 21.875 167.104 22.25 167.188C23 167.771 23.7917 168.312 24.625 168.812C25.4167 169.271 26.1667 169.812 26.875 170.438C27.3333 170.521 27.75 170.688 28.125 170.938C28.4583 171.146 28.9167 171.292 29.5 171.375C30.125 171.833 30.8125 172.167 31.5625 172.375C32.3125 172.583 33.1042 172.854 33.9375 173.188C34.2708 173.271 34.6042 173.375 34.9375 173.5C35.2292 173.583 35.5417 173.688 35.875 173.812C36.2917 173.979 36.6875 174.188 37.0625 174.438C37.3958 174.646 37.7708 174.854 38.1875 175.062C38.2708 175.146 38.3958 175.188 38.5625 175.188C38.6875 175.188 38.7917 175.208 38.875 175.25C39.1667 175.375 39.4375 175.5 39.6875 175.625C39.8958 175.75 40.1042 175.854 40.3125 175.938C40.5208 176.021 40.75 176.083 41 176.125C41.2083 176.125 41.4167 176.167 41.625 176.25C41.75 176.292 41.875 176.333 42 176.375C42.0833 176.417 42.1875 176.458 42.3125 176.5C42.8958 176.625 43.2917 176.625 43.5 176.5C43.7083 176.375 43.9167 176.271 44.125 176.188C44.375 176.104 44.6042 176.021 44.8125 175.938C44.9792 175.854 45.1667 175.792 45.375 175.75C45.4583 175.542 45.5417 175.354 45.625 175.188C45.7083 174.979 45.75 174.771 45.75 174.562C45.7917 174.312 45.6875 174.042 45.4375 173.75C45.1458 173.458 44.9792 173.208 44.9375 173C44.8542 172.708 44.8125 172.438 44.8125 172.188C44.8125 171.896 44.75 171.646 44.625 171.438C44.4167 171.188 44.2083 170.979 44 170.812C43.7917 170.646 43.6458 170.417 43.5625 170.125C43.3958 169.458 43.2708 169.104 43.1875 169.062C43.0625 169.021 42.8958 168.875 42.6875 168.625C42.4792 168.333 42.2917 168.083 42.125 167.875C41.9167 167.625 41.7083 167.333 41.5 167C41.2917 166.583 41.1667 166.354 41.125 166.312C41.0833 166.229 40.9375 166.042 40.6875 165.75C40.4792 165.333 40.25 164.979 40 164.688C39.75 164.396 39.5208 164.062 39.3125 163.688C39.1458 163.271 39.0417 163.021 39 162.938C38.9167 162.854 38.8542 162.812 38.8125 162.812C38.7708 162.771 38.7083 162.729 38.625 162.688C38.5417 162.604 38.3958 162.396 38.1875 162.062C37.8542 161.896 37.5833 161.708 37.375 161.5C37.1667 161.292 36.8958 161.042 36.5625 160.75C36.2708 160.5 36.0208 160.25 35.8125 160C35.6042 159.708 35.3958 159.458 35.1875 159.25C35.1042 159.125 35.0208 159.021 34.9375 158.938C34.8125 158.854 34.7292 158.708 34.6875 158.5C34.4792 158.25 34.3125 158.062 34.1875 157.938C34.0208 157.771 33.7917 157.521 33.5 157.188C33.4167 157.104 33.3125 157 33.1875 156.875C33.0625 156.75 32.9792 156.646 32.9375 156.562C32.9375 156.396 33 156.271 33.125 156.188C33.25 156.062 33.3125 155.917 33.3125 155.75C33.8542 155.792 34.2083 155.812 34.375 155.812C34.5 155.812 34.6458 155.854 34.8125 155.938C35.1875 156.188 35.3958 156.479 35.4375 156.812C35.4792 157.104 35.7083 157.333 36.125 157.5C36.0417 157.625 36.0208 157.792 36.0625 158C36.1042 158.167 36.1667 158.292 36.25 158.375C36.4167 158.292 36.5625 158.25 36.6875 158.25C36.8125 158.25 36.9583 158.229 37.125 158.188C37.875 158.938 38.4792 159.438 38.9375 159.688C39.4792 160.188 39.7917 160.458 39.875 160.5C39.9167 160.542 39.9375 160.562 39.9375 160.562C39.9375 160.562 39.9583 160.583 40 160.625C40.0417 160.667 40.1875 160.812 40.4375 161.062C40.8958 161.646 41.3333 162.083 41.75 162.375C42.1667 162.667 42.5417 163.104 42.875 163.688C43.2083 164.146 43.4583 164.458 43.625 164.625C43.7917 164.792 44.0208 165.042 44.3125 165.375C44.4792 165.542 44.6667 165.708 44.875 165.875C45.0417 166 45.2083 166.167 45.375 166.375C45.5833 166.667 45.7708 166.958 45.9375 167.25C46.1042 167.5 46.3125 167.729 46.5625 167.938C46.8542 168.562 47.1875 169.021 47.5625 169.312C47.9375 169.562 48.2917 169.958 48.625 170.5C48.875 170.875 49.1875 171.396 49.5625 172.062C49.9375 172.688 50.2083 173.229 50.375 173.688C50.4167 173.812 50.4583 173.938 50.5 174.062C50.5417 174.146 50.5833 174.25 50.625 174.375C50.4167 174.708 50.2083 175.042 50 175.375C49.7917 175.667 49.5 175.917 49.125 176.125C48.8333 176.5 48.625 176.812 48.5 177.062C48.375 177.271 48.2083 177.479 48 177.688C47.2917 178.104 46.5833 178.583 45.875 179.125C45.1667 179.625 44.375 180.021 43.5 180.312C43.3333 180.396 43.1667 180.458 43 180.5C42.7917 180.5 42.5833 180.521 42.375 180.562C42.0417 180.646 41.75 180.729 41.5 180.812C41.25 180.896 40.9375 180.917 40.5625 180.875C40.3125 180.875 40.0417 180.833 39.75 180.75C39.4583 180.667 39.1458 180.583 38.8125 180.5C38.2708 180.333 37.75 180.146 37.25 179.938C36.75 179.688 36.2083 179.5 35.625 179.375C35.1667 179.25 34.75 179.125 34.375 179C34 178.875 33.5833 178.729 33.125 178.562C32.9167 178.479 32.7292 178.438 32.5625 178.438C32.3542 178.396 32.2083 178.271 32.125 178.062C31.2917 177.896 30.5 177.625 29.75 177.25C28.9583 176.875 28.2083 176.5 27.5 176.125C26.625 175.667 25.7292 175.25 24.8125 174.875C23.8958 174.458 23 174.021 22.125 173.562C21.625 173.521 21.2083 173.354 20.875 173.062C20.4167 173.021 19.9792 172.854 19.5625 172.562C19.1042 172.271 18.6458 172.062 18.1875 171.938C18.0625 172.396 18.0625 172.917 18.1875 173.5C18.2708 174.042 18.3542 174.521 18.4375 174.938C18.4792 175.688 18.4792 176.479 18.4375 177.312C18.3958 177.604 18.3542 177.896 18.3125 178.188C18.2292 178.438 18.1875 178.688 18.1875 178.938C18.2292 179.312 18.2083 179.604 18.125 179.812C18 179.979 17.9792 180.167 18.0625 180.375C17.6042 180.917 17.2917 181.312 17.125 181.562C16.9583 181.812 16.8125 182.042 16.6875 182.25C16.5208 182.5 16.3542 182.708 16.1875 182.875C15.9792 183.083 15.6875 183.25 15.3125 183.375C15.1875 183.375 15.0833 183.312 15 183.188C14.9167 183.062 14.8333 182.958 14.75 182.875C14.6667 182.542 14.6458 182.167 14.6875 181.75C14.6875 181.333 14.6042 181 14.4375 180.75C14.5208 180.083 14.4792 179.479 14.3125 178.938C14.1458 178.354 14.0833 177.75 14.125 177.125C14.125 177 14.1458 176.875 14.1875 176.75C14.2292 176.625 14.25 176.5 14.25 176.375C14.2917 176.167 14.2917 176 14.25 175.875C14.2083 175.708 14.1667 175.521 14.125 175.312C14.0833 175.062 14.0833 174.792 14.125 174.5C14.1667 174.208 14.1667 173.917 14.125 173.625C14.0833 173.083 14.1458 172.438 14.3125 171.688C14.4375 170.896 14.3958 170.208 14.1875 169.625C13.6042 169.417 13.0208 169.188 12.4375 168.938C11.8125 168.646 11.2083 168.417 10.625 168.25C10.375 168.083 10.1042 167.917 9.8125 167.75C9.47917 167.583 9.16667 167.458 8.875 167.375C8.45833 167.125 8.125 166.938 7.875 166.812C7.625 166.646 7.375 166.458 7.125 166.25C6.54167 165.958 5.97917 165.75 5.4375 165.625C4.85417 165.458 4.22917 165.25 3.5625 165C2.97917 164.458 2.27083 163.917 1.4375 163.375C1.47917 163.083 1.39583 162.854 1.1875 162.688C0.979167 162.479 1 162.188 1.25 161.812C1.375 161.812 1.5 161.771 1.625 161.688C1.70833 161.562 1.85417 161.542 2.0625 161.625C2.27083 161.417 2.45833 161.25 2.625 161.125C2.79167 161 2.97917 160.896 3.1875 160.812C3.52083 160.729 3.91667 160.771 4.375 160.938C4.79167 161.062 5.1875 161.021 5.5625 160.812C5.77083 160.729 5.97917 160.708 6.1875 160.75C6.35417 160.792 6.52083 160.771 6.6875 160.688C6.89583 160.604 7.10417 160.5 7.3125 160.375C7.52083 160.208 7.79167 160.125 8.125 160.125C8.25 160.125 8.41667 160.167 8.625 160.25C8.79167 160.292 8.97917 160.354 9.1875 160.438C9.8125 160.604 10.25 160.729 10.5 160.812C10.75 160.896 11.0208 160.979 11.3125 161.062C11.6458 161.354 11.875 161.5 12 161.5C12.0833 161.5 12.1667 161.521 12.25 161.562C12.5 161.688 12.8125 161.833 13.1875 162C13.5208 162.125 13.7917 162.25 14 162.375ZM31.625 142.812C31.75 142.771 32 142.812 32.375 142.938C32.625 143.146 32.8958 143.271 33.1875 143.312C33.3542 143.396 33.5 143.479 33.625 143.562C33.75 143.604 33.9167 143.646 34.125 143.688C34.375 143.771 34.6667 143.812 35 143.812C35.3333 143.771 35.6458 143.771 35.9375 143.812C36.3958 143.896 36.8542 143.958 37.3125 144C37.7292 144.042 38.1667 144.083 38.625 144.125C39.0833 144.125 39.6042 144.167 40.1875 144.25C40.7708 144.333 41.2917 144.417 41.75 144.5C42.0417 144.333 42.3542 144.229 42.6875 144.188C43.0208 144.146 43.2917 144 43.5 143.75C43.375 142.917 43.1875 142.25 42.9375 141.75C42.6458 141.25 42.25 140.771 41.75 140.312C41.5833 139.938 41.4375 139.688 41.3125 139.562C41.1875 139.396 41.0208 139.146 40.8125 138.812C40.7292 138.729 40.6458 138.646 40.5625 138.562C40.4792 138.479 40.3958 138.396 40.3125 138.312C40.0625 137.854 39.8958 137.583 39.8125 137.5C39.7292 137.375 39.6458 137.229 39.5625 137.062C39.1042 136.354 38.625 135.812 38.125 135.438C37.8333 135.062 37.5833 134.812 37.375 134.688C37.125 134.521 36.8958 134.188 36.6875 133.688C36.3542 133.396 36.0833 133.104 35.875 132.812C35.625 132.479 35.3333 132.167 35 131.875C35 131.667 35.0417 131.5 35.125 131.375C35.2083 131.25 35.2917 131.104 35.375 130.938C35.7083 130.812 36.0625 130.792 36.4375 130.875C36.7708 130.958 37.0833 131.104 37.375 131.312C37.6667 131.521 37.8333 131.625 37.875 131.625C37.9167 131.625 37.9583 131.646 38 131.688C38.1667 131.812 38.3333 131.979 38.5 132.188C38.625 132.354 38.7708 132.5 38.9375 132.625C39.3125 132.833 39.5 133 39.5 133.125C39.5 133.25 39.5417 133.354 39.625 133.438C39.8333 133.812 40 134.083 40.125 134.25C40.25 134.375 40.4167 134.604 40.625 134.938C40.875 135.396 41.0417 135.667 41.125 135.75C41.2083 135.833 41.2708 135.917 41.3125 136C41.8958 136.542 42.375 137.042 42.75 137.5C43.0833 137.917 43.5417 138.375 44.125 138.875C44.25 139.042 44.375 139.208 44.5 139.375C44.625 139.542 44.7917 139.688 45 139.812C45.25 140.188 45.5 140.5 45.75 140.75C46 140.958 46.2917 141.208 46.625 141.5C46.75 141.75 46.9375 142.021 47.1875 142.312C47.3958 142.604 47.5833 142.917 47.75 143.25C47.8333 143.417 47.9375 143.604 48.0625 143.812C48.1458 143.979 48.1875 144.167 48.1875 144.375C48.2708 144.875 48.2292 145.333 48.0625 145.75C47.8958 146.167 47.7708 146.562 47.6875 146.938C47.4375 147.104 47.2292 147.312 47.0625 147.562C46.6042 147.938 46.0625 148.208 45.4375 148.375C44.8125 148.542 44.1458 148.708 43.4375 148.875C43.6458 149.208 43.9167 149.521 44.25 149.812C44.5833 150.104 44.8542 150.479 45.0625 150.938C45.8542 151.771 46.625 152.667 47.375 153.625C48.0833 154.542 48.8333 155.479 49.625 156.438C49.75 156.562 49.8542 156.688 49.9375 156.812C50.0208 156.938 50.0417 157.042 50 157.125C50.25 157.333 50.3958 157.625 50.4375 158C50.5208 158.333 50.5208 158.708 50.4375 159.125C50.2292 159.542 50.0833 159.917 50 160.25C49.9167 160.583 49.7917 160.917 49.625 161.25C49.5 161.958 49.1875 162.542 48.6875 163C48.1875 163.5 47.6042 163.917 46.9375 164.25C46.6042 164.375 46.2917 164.458 46 164.5C45.7083 164.583 45.375 164.667 45 164.75C44.6667 164.792 44.3958 164.854 44.1875 164.938C43.9375 165.021 43.7083 165.021 43.5 164.938C43.375 165.021 43.25 165.042 43.125 165C42.9583 164.958 42.7917 164.938 42.625 164.938C42.0417 164.979 41.4167 164.917 40.75 164.75C40.0833 164.625 39.4792 164.438 38.9375 164.188C38.7708 164.104 38.5625 163.938 38.3125 163.688C38.1875 163.604 38.0625 163.542 37.9375 163.5C37.8125 163.458 37.7083 163.396 37.625 163.312C37.5 163.229 37.375 163.104 37.25 162.938C37.125 162.771 37 162.625 36.875 162.5C36.5833 162.292 36.3333 162.062 36.125 161.812C35.875 161.521 35.625 161.25 35.375 161C35.25 160.875 35.1042 160.771 34.9375 160.688C34.7708 160.562 34.6458 160.396 34.5625 160.188C34.2708 160.021 34.0417 159.833 33.875 159.625C33.6667 159.417 33.4583 159.188 33.25 158.938C32.375 158.229 31.6458 157.354 31.0625 156.312C30.4792 155.271 29.8125 154.333 29.0625 153.5C28.9375 153.208 28.7917 152.958 28.625 152.75C28.4583 152.542 28.2917 152.333 28.125 152.125C27.6667 151.583 27.5208 151.021 27.6875 150.438C27.8542 149.854 28 149.312 28.125 148.812C28.5 148.396 28.875 148 29.25 147.625C29.625 147.208 30.0417 146.854 30.5 146.562C30.4583 146.271 30.4583 145.938 30.5 145.562C30.5 145.188 30.4583 144.792 30.375 144.375C30.375 144.25 30.3542 144.125 30.3125 144C30.2292 143.875 30.1875 143.771 30.1875 143.688C30.3958 143.062 30.7083 142.75 31.125 142.75L31.625 142.812ZM32.0625 151C32.6042 152.125 33.25 153.146 34 154.062C34.7083 154.979 35.4792 155.854 36.3125 156.688C36.5208 156.896 36.7292 157.125 36.9375 157.375C37.1042 157.583 37.2917 157.771 37.5 157.938C37.7083 158.104 37.9583 158.271 38.25 158.438C38.5417 158.562 38.8125 158.688 39.0625 158.812C39.2292 158.896 39.375 158.979 39.5 159.062C39.5833 159.146 39.6875 159.229 39.8125 159.312C40.0208 159.396 40.2292 159.438 40.4375 159.438C40.6458 159.396 40.875 159.375 41.125 159.375C41.3333 159.375 41.5417 159.375 41.75 159.375C41.9583 159.375 42.1667 159.354 42.375 159.312C42.8333 159.188 43.2917 159.125 43.75 159.125C44.0833 159.125 44.5 159.104 45 159.062C45.4583 158.979 45.7708 158.812 45.9375 158.562C46.1042 158.312 46.1458 158.062 46.0625 157.812C45.9792 157.521 45.9167 157.271 45.875 157.062C44.75 155.604 43.5833 154.229 42.375 152.938C41.125 151.646 39.7292 150.5 38.1875 149.5C37.1042 149.583 36.0625 149.604 35.0625 149.562C34.0208 149.479 33.0625 149.562 32.1875 149.812C32.1042 149.979 32.0833 150.188 32.125 150.438C32.125 150.646 32.1042 150.833 32.0625 151ZM2.9375 85C3.47917 85.25 3.85417 85.3958 4.0625 85.4375C4.27083 85.4375 4.47917 85.4792 4.6875 85.5625C4.89583 85.6458 5.04167 85.7083 5.125 85.75C5.20833 85.75 5.33333 85.7917 5.5 85.875C5.70833 86 5.8125 86.125 5.8125 86.25C5.8125 86.375 5.91667 86.5417 6.125 86.75C6.25 86.8333 6.375 86.9375 6.5 87.0625C6.625 87.1875 6.72917 87.2917 6.8125 87.375C7.02083 87.5 7.20833 87.5833 7.375 87.625C7.54167 87.6667 7.66667 87.8125 7.75 88.0625C7.79167 88.1875 7.8125 88.3333 7.8125 88.5C7.77083 88.625 7.79167 88.7292 7.875 88.8125C8.04167 89.2708 8.14583 89.6458 8.1875 89.9375C8.22917 90.2292 8.27083 90.5417 8.3125 90.875C8.52083 91.375 8.625 91.7083 8.625 91.875C8.625 92.0417 8.64583 92.2083 8.6875 92.375C8.72917 92.5417 8.79167 92.7292 8.875 92.9375C8.91667 93.1042 8.97917 93.3125 9.0625 93.5625C9.77083 93.7708 10.375 94.0625 10.875 94.4375C11.375 94.8125 11.9792 95.125 12.6875 95.375C13.8958 96.125 15.0208 96.7917 16.0625 97.375C17.1042 97.9167 18.1042 98.4167 19.0625 98.875C19.2708 99.0833 19.5208 99.2708 19.8125 99.4375C20.1042 99.5625 20.4167 99.7083 20.75 99.875C21.1667 100.083 21.3958 100.208 21.4375 100.25C21.4792 100.292 21.5417 100.333 21.625 100.375C21.7917 100.458 21.9792 100.542 22.1875 100.625C22.3542 100.708 22.5417 100.792 22.75 100.875C23.0833 101.125 23.375 101.312 23.625 101.438C23.8333 101.521 24.0417 101.604 24.25 101.688C24.4583 101.812 24.6667 101.938 24.875 102.062C25.0833 102.188 25.3125 102.312 25.5625 102.438C26.5625 102.854 27.4375 103.229 28.1875 103.562C28.8958 103.854 29.6667 104.104 30.5 104.312C30.7917 104.396 31.125 104.5 31.5 104.625C31.875 104.708 32.1667 104.812 32.375 104.938C34.4167 105.729 36.5 106.542 38.625 107.375C40.75 108.208 42.8958 109 45.0625 109.75C45.0625 109.083 44.9583 108.542 44.75 108.125C44.5 107.708 44.375 107.146 44.375 106.438C45 105.979 45.625 105.938 46.25 106.312C46.6667 106.646 46.9792 106.833 47.1875 106.875C47.3958 106.917 47.5833 106.979 47.75 107.062C48.0417 107.312 48.25 107.479 48.375 107.562C48.5 107.604 48.625 107.688 48.75 107.812C49.0833 108.188 49.3125 108.833 49.4375 109.75C49.5208 110.208 49.625 110.604 49.75 110.938C49.9167 111.229 50.0417 111.562 50.125 111.938C50.1667 112.188 50.2083 112.417 50.25 112.625C50.2917 112.833 50.3333 113.021 50.375 113.188C50.375 113.354 50.3542 113.521 50.3125 113.688C50.3125 113.812 50.3542 113.938 50.4375 114.062C50.4375 114.771 50.4792 115.375 50.5625 115.875C50.6458 116.333 50.75 116.792 50.875 117.25C50.9583 117.583 51.0625 117.896 51.1875 118.188C51.3125 118.521 51.375 118.875 51.375 119.25C51.375 119.375 51.3333 119.5 51.25 119.625C51.2083 119.75 51.1875 119.896 51.1875 120.062C51.0625 120.188 50.8958 120.312 50.6875 120.438C50.5208 120.562 50.3333 120.625 50.125 120.625C49.9167 120.625 49.7083 120.583 49.5 120.5C49.3333 120.458 49.1458 120.458 48.9375 120.5C48.4375 120.5 48.0625 120.312 47.8125 119.938C47.5208 119.604 47.2083 119.333 46.875 119.125C46.7917 118.5 46.6458 117.938 46.4375 117.438C46.2292 116.979 46.0833 116.417 46 115.75C44.2917 115.167 42.5417 114.521 40.75 113.812C38.9583 113.104 37.2083 112.417 35.5 111.75C35.1667 111.625 34.8542 111.5 34.5625 111.375C34.2292 111.208 33.8958 111.062 33.5625 110.938C33.0208 110.729 32.5 110.521 32 110.312C31.4583 110.104 30.9167 109.875 30.375 109.625C30.0833 109.375 29.7292 109.188 29.3125 109.062C29.1042 108.979 28.9375 108.938 28.8125 108.938C28.6458 108.896 28.4583 108.833 28.25 108.75C27.9167 108.583 27.5833 108.396 27.25 108.188C26.9167 107.979 26.5833 107.771 26.25 107.562C25.8333 107.271 25.4375 106.979 25.0625 106.688C24.6458 106.354 24.2292 106.042 23.8125 105.75C22.9792 105.458 22.1875 105.146 21.4375 104.812C20.6458 104.438 19.8542 104.083 19.0625 103.75C18.5208 103.667 17.9375 103.5 17.3125 103.25C16.6458 102.958 16.0833 102.708 15.625 102.5C15.1667 102.25 14.6875 102.042 14.1875 101.875C13.6458 101.708 13.1458 101.479 12.6875 101.188C12.3958 101.104 12.1458 101 11.9375 100.875C11.6875 100.75 11.4167 100.646 11.125 100.562C10.875 100.396 10.6042 100.271 10.3125 100.188C9.97917 100.062 9.64583 99.9375 9.3125 99.8125C9.39583 99.9792 9.45833 100.146 9.5 100.312C9.5 100.438 9.52083 100.583 9.5625 100.75C9.60417 100.875 9.66667 101.021 9.75 101.188C9.83333 101.354 9.89583 101.542 9.9375 101.75C10.0208 102.417 10.0208 103 9.9375 103.5C9.85417 104.042 9.47917 104.396 8.8125 104.562C8.47917 104.604 8.3125 104.542 8.3125 104.375C8.27083 104.167 8.10417 104.021 7.8125 103.938C6.85417 103.979 6.14583 103.854 5.6875 103.562C5.1875 103.271 4.89583 102.896 4.8125 102.438C4.72917 102.229 4.6875 102.042 4.6875 101.875C4.6875 101.708 4.60417 101.542 4.4375 101.375C4.3125 100.958 4.25 100.542 4.25 100.125C4.20833 99.6667 4.14583 99.2083 4.0625 98.75C3.97917 98.2917 3.91667 97.8542 3.875 97.4375C3.79167 97.0208 3.75 96.625 3.75 96.25C3.625 95.7917 3.52083 95.375 3.4375 95C3.3125 94.625 3.27083 94.1667 3.3125 93.625C3.3125 93.3333 3.35417 93.0625 3.4375 92.8125C3.47917 92.5625 3.5 92.2917 3.5 92C3.5 91.7083 3.52083 91.4375 3.5625 91.1875C3.60417 90.8958 3.58333 90.5833 3.5 90.25C3.45833 90 3.375 89.7708 3.25 89.5625C3.125 89.3125 3.10417 89.0625 3.1875 88.8125C3.10417 88.3958 3.02083 87.9792 2.9375 87.5625C2.85417 87.1042 2.8125 86.6458 2.8125 86.1875C2.85417 85.7292 2.85417 85.5 2.8125 85.5C2.72917 85.5 2.70833 85.4375 2.75 85.3125L2.9375 85ZM40.8125 93.4375C40.6042 93.1042 40.3333 92.8333 40 92.625C39.6667 92.4167 39.3333 92.1667 39 91.875C38.375 91.3333 37.8542 90.75 37.4375 90.125C37.0208 89.8333 36.7083 89.4792 36.5 89.0625C36.25 88.6042 35.8958 88.25 35.4375 88C35.3125 87.9167 35.1875 87.8542 35.0625 87.8125C34.9375 87.7292 34.8125 87.6458 34.6875 87.5625C33.6458 86.8125 32.7292 85.9583 31.9375 85C31.7292 84.75 31.5208 84.5208 31.3125 84.3125C31.1042 84.0625 30.8958 83.7708 30.6875 83.4375C30.4792 83.0625 30.2083 82.7083 29.875 82.375C29.5417 82 29.2917 81.6042 29.125 81.1875C29 80.8958 28.9167 80.625 28.875 80.375C28.7917 80.125 28.7083 79.8542 28.625 79.5625C28.5417 79.2708 28.4792 79.0208 28.4375 78.8125C28.3542 78.5625 28.3542 78.2917 28.4375 78C28.7292 77.3333 29.2917 76.8333 30.125 76.5C30.3333 76.4167 30.7917 76.4583 31.5 76.625C32.1667 76.75 32.9167 76.9375 33.75 77.1875C34.5417 77.3958 35.3125 77.625 36.0625 77.875C36.8125 78.125 37.3542 78.2917 37.6875 78.375C38.0208 78.4583 38.2083 78.4792 38.25 78.4375C38.25 78.3958 38.2917 78.375 38.375 78.375C38.5833 78.4583 38.7708 78.5208 38.9375 78.5625C39.1042 78.6042 39.2917 78.6458 39.5 78.6875C39.8333 78.7708 40.2917 78.8333 40.875 78.875C41.4167 78.9167 41.8542 78.8958 42.1875 78.8125C42.1458 78.3542 42.1042 78.125 42.0625 78.125C42.0208 78.0833 42 78.0208 42 77.9375C41.9583 77.8125 41.9583 77.6875 42 77.5625C42 77.3958 41.9792 77.25 41.9375 77.125C41.8125 76.6667 41.6458 76.25 41.4375 75.875C41.1875 75.5 40.8958 75.1458 40.5625 74.8125C40.2292 74.0625 39.8958 73.375 39.5625 72.75C39.1458 72.1667 38.8542 71.7083 38.6875 71.375C38.4792 71 38.2083 70.4583 37.875 69.75C37.5833 69.5 37.3333 69.1458 37.125 68.6875C36.875 68.1875 36.6042 67.7708 36.3125 67.4375C36.2292 67.3542 36.125 67.25 36 67.125C35.8333 67 35.7917 66.875 35.875 66.75C36.0833 66.5417 36.3125 66.4167 36.5625 66.375C36.7708 66.2917 36.9167 66.2708 37 66.3125C37.3333 66.6458 37.5833 66.8333 37.75 66.875C37.9167 66.875 38.0417 66.9167 38.125 67C38.3333 67.2083 38.5208 67.5208 38.6875 67.9375C38.8542 68.3125 39 68.5417 39.125 68.625C39.2083 68.6667 39.2917 68.7292 39.375 68.8125C39.4583 68.8958 39.5625 69.0208 39.6875 69.1875C39.7708 69.3125 39.8542 69.4167 39.9375 69.5C40.0625 69.5833 40.1458 69.7083 40.1875 69.875C40.1875 70 40.2083 70.125 40.25 70.25C40.4583 70.5 40.6458 70.7083 40.8125 70.875C40.9792 71.0417 41.1667 71.2292 41.375 71.4375C41.7083 71.7708 41.9583 71.9792 42.125 72.0625C42.25 72.1458 42.4375 72.375 42.6875 72.75C42.8125 72.9583 42.9375 73.1667 43.0625 73.375C43.1875 73.5833 43.3125 73.7917 43.4375 74C43.7292 74.5833 44.0833 75.1667 44.5 75.75C44.9167 76.3333 45.3333 76.9167 45.75 77.5C46 77.9167 46.2292 78.3542 46.4375 78.8125C46.6042 79.2292 46.8125 79.625 47.0625 80C47.0625 80.1667 47.0625 80.2917 47.0625 80.375C47.0208 80.4167 47.0417 80.5208 47.125 80.6875C47 80.8958 47 81.1042 47.125 81.3125C47.2083 81.5208 47.2083 81.7292 47.125 81.9375C46.7917 82.3542 46.5833 82.6458 46.5 82.8125C46.4167 82.9375 46.3125 83.0417 46.1875 83.125C45.9792 83.2083 45.75 83.25 45.5 83.25C45.25 83.2083 45.0417 83.25 44.875 83.375C43.9583 83.375 43.0833 83.3542 42.25 83.3125C41.4167 83.2292 40.5417 83.0833 39.625 82.875C39.3333 82.8333 38.9375 82.75 38.4375 82.625C37.8958 82.5 37.375 82.3958 36.875 82.3125C36.375 82.2292 35.9375 82.1667 35.5625 82.125C35.1875 82.0833 34.9583 82.125 34.875 82.25C35.125 82.7083 35.5 83.1875 36 83.6875C36.5 84.1458 36.9167 84.5833 37.25 85C37.5 85.3333 37.7292 85.6667 37.9375 86C38.1458 86.2917 38.375 86.6042 38.625 86.9375C38.8333 87.2292 39.0417 87.4792 39.25 87.6875C39.4583 87.8958 39.7083 88.125 40 88.375C40.2917 88.6667 40.5833 88.9375 40.875 89.1875C41.125 89.4375 41.375 89.7292 41.625 90.0625C41.7917 90.2292 41.9375 90.3958 42.0625 90.5625C42.1458 90.6875 42.25 90.8125 42.375 90.9375C42.5833 91.1458 42.7917 91.3542 43 91.5625C43.1667 91.7292 43.3125 91.9583 43.4375 92.25C43.7708 92.5 44.1458 92.8333 44.5625 93.25C44.9792 93.625 45.4375 94.0208 45.9375 94.4375C46.3958 94.8125 46.8542 95.1875 47.3125 95.5625C47.7708 95.9375 48.1875 96.2292 48.5625 96.4375C48.9792 96.9375 49.3333 97.4792 49.625 98.0625C49.9583 98.6042 50 99.2708 49.75 100.062C49.5 100.479 49.2917 100.75 49.125 100.875C48.9583 101 48.8333 101.146 48.75 101.312C48.2917 101.271 47.8542 101.229 47.4375 101.188C47.0208 101.146 46.5833 101.021 46.125 100.812C46.0417 100.771 45.9583 100.708 45.875 100.625C45.75 100.583 45.625 100.521 45.5 100.438C45.125 100.229 44.7083 100.083 44.25 100C43.7917 99.9583 43.3542 99.8333 42.9375 99.625C42.5208 99.375 42.1875 99.2083 41.9375 99.125C41.6458 99.0833 41.3958 99 41.1875 98.875C40.9792 98.7917 40.7917 98.6667 40.625 98.5C40.4167 98.375 40.2083 98.2708 40 98.1875C39.7917 98.1042 39.5625 97.9583 39.3125 97.75C39.0208 97.5417 38.7708 97.3958 38.5625 97.3125C38.1042 97.1875 37.6458 97.0417 37.1875 96.875C36.7292 96.7083 36.2708 96.5208 35.8125 96.3125C35.5208 96.2292 35.25 96.1458 35 96.0625C34.7083 95.9792 34.4375 95.875 34.1875 95.75C33.7292 95.5417 33.2917 95.3333 32.875 95.125C32.4167 94.9167 31.9583 94.7083 31.5 94.5C31.25 94.375 31.0417 94.2708 30.875 94.1875C30.6667 94.0625 30.4583 93.9167 30.25 93.75C30.0417 93.625 29.8333 93.5208 29.625 93.4375C29.4167 93.3125 29.2083 93.1875 29 93.0625C28.7917 92.9375 28.5625 92.8333 28.3125 92.75C28.0208 92.625 27.75 92.4583 27.5 92.25C27.1667 91.9583 26.8542 91.7292 26.5625 91.5625C26.2708 91.3958 26.0833 91.125 26 90.75C26.0833 90.5833 26.0833 90.4167 26 90.25C25.9167 90.0417 25.8542 89.8542 25.8125 89.6875C25.7292 89.4792 25.6875 89.2917 25.6875 89.125C25.6458 88.9583 25.7083 88.8125 25.875 88.6875C26.2083 88.1458 26.5 87.75 26.75 87.5C27 87.25 27.2292 87.0833 27.4375 87C27.8125 86.7917 28.2083 86.7708 28.625 86.9375C29 87.1042 29.3333 87.3958 29.625 87.8125C30.3333 87.9792 31 88.2708 31.625 88.6875C32.25 89.1042 32.8542 89.4792 33.4375 89.8125C33.6458 89.8958 33.8542 89.9792 34.0625 90.0625C34.2708 90.1458 34.4792 90.2292 34.6875 90.3125C35.2708 90.5625 35.8542 90.8333 36.4375 91.125C37.0208 91.375 37.5833 91.6667 38.125 92C38.4583 92.1667 38.7292 92.3125 38.9375 92.4375C39.1458 92.5625 39.3333 92.6875 39.5 92.8125C39.625 92.9375 39.7917 93.0417 40 93.125C40.2083 93.2083 40.4792 93.3125 40.8125 93.4375ZM39.3125 64.5C39.4792 64.4167 39.7083 64.4583 40 64.625C40.2917 64.75 40.5417 64.8542 40.75 64.9375C40.9167 64.8958 41.0625 64.8542 41.1875 64.8125C41.2708 64.7708 41.3958 64.7917 41.5625 64.875C41.7708 64.5833 42.0208 64.3958 42.3125 64.3125C42.5625 64.2292 42.8333 64.0833 43.125 63.875C43.375 63.6667 43.5833 63.4583 43.75 63.25C43.9167 63 44.1042 62.7708 44.3125 62.5625C44.1875 62.3542 44.125 62.1875 44.125 62.0625C44.125 61.9375 44.0833 61.7708 44 61.5625C43.5 61.1875 42.9167 60.8958 42.25 60.6875C42.0833 60.6458 41.8958 60.6042 41.6875 60.5625C41.4792 60.5208 41.2917 60.5 41.125 60.5C40.5417 60.5417 39.9792 60.7083 39.4375 61C38.8958 61.2917 38.3333 61.5208 37.75 61.6875C37.4167 61.8542 37.0417 61.9167 36.625 61.875C36.2083 61.7917 35.8333 61.7917 35.5 61.875C35.2917 61.9167 35.125 61.9792 35 62.0625C34.875 62.1458 34.7292 62.2292 34.5625 62.3125C34.2292 62.3958 33.8542 62.4375 33.4375 62.4375C33.0208 62.3958 32.6667 62.4792 32.375 62.6875C32.5417 62.8542 32.8542 63.125 33.3125 63.5C33.7708 63.875 34.2708 64.2708 34.8125 64.6875C35.3542 65.1042 35.8542 65.5 36.3125 65.875C36.7708 66.2083 37.0833 66.4583 37.25 66.625C37.5417 66.8333 37.8125 67.0625 38.0625 67.3125C38.2708 67.5625 38.5208 67.7917 38.8125 68C39.0208 68.1667 39.375 68.4583 39.875 68.875C40.3333 69.25 40.8333 69.6458 41.375 70.0625C41.9167 70.4792 42.4375 70.8542 42.9375 71.1875C43.3958 71.5625 43.7083 71.8125 43.875 71.9375C44 72.0208 44.3125 72.2292 44.8125 72.5625C45.3125 72.9375 45.8542 73.3333 46.4375 73.75C47.0208 74.2083 47.5625 74.6042 48.0625 74.9375C48.5625 75.3125 48.8958 75.5417 49.0625 75.625C49.4792 75.875 49.8333 76.1875 50.125 76.5625C50.4583 76.9792 50.625 77.4583 50.625 78C50.5833 78.0417 50.4583 78.0833 50.25 78.125C50.0833 78.1667 49.8958 78.1875 49.6875 78.1875C49.4792 78.2292 49.2708 78.2708 49.0625 78.3125C48.8958 78.3958 48.7708 78.4583 48.6875 78.5C48.4375 78.375 48.1875 78.2708 47.9375 78.1875C47.6875 78.1458 47.4583 77.9792 47.25 77.6875C46.9583 77.6042 46.5 77.3542 45.875 76.9375C45.2083 76.5208 44.5208 76.0625 43.8125 75.5625C43.1042 75.0625 42.4375 74.5833 41.8125 74.125C41.1875 73.7083 40.75 73.4167 40.5 73.25C40.3333 73.0833 40.0208 72.8125 39.5625 72.4375C39.1042 72.0625 38.625 71.6875 38.125 71.3125C37.5833 70.9375 37.0833 70.5833 36.625 70.25C36.1667 69.875 35.8333 69.6042 35.625 69.4375C35.25 69.3125 34.75 69.0417 34.125 68.625C33.4583 68.2083 32.7917 67.75 32.125 67.25C31.4167 66.75 30.75 66.2708 30.125 65.8125C29.5 65.3125 29 64.9375 28.625 64.6875C28.2917 64.4792 28 64.3125 27.75 64.1875C27.5 64.0208 27.2292 63.8542 26.9375 63.6875C26.8542 63.6042 26.7708 63.5208 26.6875 63.4375C26.5625 63.3542 26.4583 63.2917 26.375 63.25C26.0417 63.1667 25.8125 63.2083 25.6875 63.375C25.5208 63.5417 25.2917 63.6042 25 63.5625C24.3333 63.2292 23.8958 62.875 23.6875 62.5C23.4375 62.0833 23.0833 61.7083 22.625 61.375C22.4583 61.1667 22.3333 60.9792 22.25 60.8125C22.1667 60.6042 22.0208 60.3958 21.8125 60.1875C21.6458 60.0208 21.5625 59.8125 21.5625 59.5625C21.5208 59.3125 21.5417 59.0833 21.625 58.875C21.6667 58.625 21.75 58.4167 21.875 58.25C21.9583 58.0417 22.0417 57.9167 22.125 57.875C22.25 57.8333 22.4167 57.8333 22.625 57.875C22.8333 57.9167 23.0417 57.9583 23.25 58C23.625 58.0833 23.9792 58.1667 24.3125 58.25C24.6042 58.3333 24.9375 58.4167 25.3125 58.5C25.7708 58.5833 26.2083 58.6667 26.625 58.75C27.0417 58.7917 27.4375 58.6458 27.8125 58.3125C28.0208 58.3542 28.2708 58.3542 28.5625 58.3125C28.8542 58.2292 29.125 58.1458 29.375 58.0625C30.7083 57.9792 32.0417 57.75 33.375 57.375C34.6667 56.9583 35.8542 56.5208 36.9375 56.0625C37.1458 56.0625 37.3542 56.0417 37.5625 56C37.7708 55.9167 37.9792 55.8333 38.1875 55.75C39.5208 55.625 40.8542 55.75 42.1875 56.125C43.4792 56.5 44.75 56.8542 46 57.1875C46.4167 57.4375 46.8958 57.6458 47.4375 57.8125C47.6875 57.8958 47.8958 57.9792 48.0625 58.0625C48.2292 58.1458 48.4167 58.2708 48.625 58.4375C48.9583 58.6458 49.3333 58.8333 49.75 59C50.1667 59.1667 50.5 59.5 50.75 60C50.8333 60.2917 50.8333 60.5833 50.75 60.875C50.6667 61.125 50.6667 61.375 50.75 61.625C50.7917 61.8333 50.8333 62.0208 50.875 62.1875C50.9583 62.3542 51 62.5208 51 62.6875C51.0833 63.2292 51.0208 63.6875 50.8125 64.0625C50.6458 64.3958 50.5208 64.8125 50.4375 65.3125C50.3125 65.3125 50.2083 65.375 50.125 65.5C50.0833 65.625 50.0208 65.7292 49.9375 65.8125C49.2708 65.9792 48.7917 66.1458 48.5 66.3125C48.2083 66.4792 47.8958 66.6042 47.5625 66.6875C47.1042 66.8125 46.6667 66.875 46.25 66.875C45.7917 66.875 45.3333 66.9792 44.875 67.1875C44.5417 67.3542 44.3125 67.4375 44.1875 67.4375C44.0625 67.3958 43.9375 67.375 43.8125 67.375C43.2708 67.375 42.6875 67.4167 42.0625 67.5C41.3958 67.5417 40.8542 67.2708 40.4375 66.6875C40.2708 66.4792 40.0625 66.3333 39.8125 66.25C39.5208 66.125 39.2708 65.9375 39.0625 65.6875C38.9792 65.6042 38.9375 65.4792 38.9375 65.3125C38.9375 65.1042 38.9583 64.9583 39 64.875L39.3125 64.5ZM14 32.5625C14.0833 32.0208 14.1458 31.5625 14.1875 31.1875C14.2292 30.8125 14.2708 30.4792 14.3125 30.1875C14.3125 29.8542 14.3125 29.5208 14.3125 29.1875C14.2708 28.8542 14.2083 28.4375 14.125 27.9375C14 27.0208 13.8958 26.2083 13.8125 25.5C13.6875 24.75 13.5833 23.9375 13.5 23.0625C13.4583 22.8125 13.4583 22.5625 13.5 22.3125C13.5417 22.0208 13.5625 21.75 13.5625 21.5C13.5625 20.9583 13.5417 20.4375 13.5 19.9375C13.4583 19.3958 13.4167 18.8958 13.375 18.4375C13.3333 18.2708 13.2917 18.125 13.25 18C13.2083 17.875 13.2083 17.75 13.25 17.625C13.25 17.25 13.25 16.875 13.25 16.5C13.2083 16.125 13.3333 15.7917 13.625 15.5C14.0417 15.375 14.2708 15.3333 14.3125 15.375C14.3542 15.4167 14.4167 15.4583 14.5 15.5C15.0417 15.5417 15.3125 15.625 15.3125 15.75C15.3125 15.8333 15.3542 15.875 15.4375 15.875C15.5208 16.2083 15.6042 16.5 15.6875 16.75C15.7292 16.9583 15.8542 17.125 16.0625 17.25C16.2292 17.9583 16.2708 18.625 16.1875 19.25C16.0625 19.8333 16.1458 20.4375 16.4375 21.0625C16.5625 21.3542 16.7292 21.6667 16.9375 22C17.1042 22.2917 17.1042 22.6667 16.9375 23.125C16.9375 23.5417 16.9583 24.0208 17 24.5625C17.0417 25.1042 17.0833 25.625 17.125 26.125C17.2083 27.0833 17.2917 27.9167 17.375 28.625C17.4167 29.2917 17.4583 29.9375 17.5 30.5625C17.5 31.1875 17.5208 31.8333 17.5625 32.5C17.6042 33.125 17.625 33.8958 17.625 34.8125C17.9167 35.1458 18.2708 35.375 18.6875 35.5C19.1042 35.5833 19.4375 35.7917 19.6875 36.125C20.4792 36.4583 21.0208 36.7292 21.3125 36.9375C21.5625 37.1458 21.875 37.2917 22.25 37.375C23 37.9583 23.7917 38.5 24.625 39C25.4167 39.4583 26.1667 40 26.875 40.625C27.3333 40.7083 27.75 40.875 28.125 41.125C28.4583 41.3333 28.9167 41.4792 29.5 41.5625C30.125 42.0208 30.8125 42.3542 31.5625 42.5625C32.3125 42.7708 33.1042 43.0417 33.9375 43.375C34.2708 43.4583 34.6042 43.5625 34.9375 43.6875C35.2292 43.7708 35.5417 43.875 35.875 44C36.2917 44.1667 36.6875 44.375 37.0625 44.625C37.3958 44.8333 37.7708 45.0417 38.1875 45.25C38.2708 45.3333 38.3958 45.375 38.5625 45.375C38.6875 45.375 38.7917 45.3958 38.875 45.4375C39.1667 45.5625 39.4375 45.6875 39.6875 45.8125C39.8958 45.9375 40.1042 46.0417 40.3125 46.125C40.5208 46.2083 40.75 46.2708 41 46.3125C41.2083 46.3125 41.4167 46.3542 41.625 46.4375C41.75 46.4792 41.875 46.5208 42 46.5625C42.0833 46.6042 42.1875 46.6458 42.3125 46.6875C42.8958 46.8125 43.2917 46.8125 43.5 46.6875C43.7083 46.5625 43.9167 46.4583 44.125 46.375C44.375 46.2917 44.6042 46.2083 44.8125 46.125C44.9792 46.0417 45.1667 45.9792 45.375 45.9375C45.4583 45.7292 45.5417 45.5417 45.625 45.375C45.7083 45.1667 45.75 44.9583 45.75 44.75C45.7917 44.5 45.6875 44.2292 45.4375 43.9375C45.1458 43.6458 44.9792 43.3958 44.9375 43.1875C44.8542 42.8958 44.8125 42.625 44.8125 42.375C44.8125 42.0833 44.75 41.8333 44.625 41.625C44.4167 41.375 44.2083 41.1667 44 41C43.7917 40.8333 43.6458 40.6042 43.5625 40.3125C43.3958 39.6458 43.2708 39.2917 43.1875 39.25C43.0625 39.2083 42.8958 39.0625 42.6875 38.8125C42.4792 38.5208 42.2917 38.2708 42.125 38.0625C41.9167 37.8125 41.7083 37.5208 41.5 37.1875C41.2917 36.7708 41.1667 36.5417 41.125 36.5C41.0833 36.4167 40.9375 36.2292 40.6875 35.9375C40.4792 35.5208 40.25 35.1667 40 34.875C39.75 34.5833 39.5208 34.25 39.3125 33.875C39.1458 33.4583 39.0417 33.2083 39 33.125C38.9167 33.0417 38.8542 33 38.8125 33C38.7708 32.9583 38.7083 32.9167 38.625 32.875C38.5417 32.7917 38.3958 32.5833 38.1875 32.25C37.8542 32.0833 37.5833 31.8958 37.375 31.6875C37.1667 31.4792 36.8958 31.2292 36.5625 30.9375C36.2708 30.6875 36.0208 30.4375 35.8125 30.1875C35.6042 29.8958 35.3958 29.6458 35.1875 29.4375C35.1042 29.3125 35.0208 29.2083 34.9375 29.125C34.8125 29.0417 34.7292 28.8958 34.6875 28.6875C34.4792 28.4375 34.3125 28.25 34.1875 28.125C34.0208 27.9583 33.7917 27.7083 33.5 27.375C33.4167 27.2917 33.3125 27.1875 33.1875 27.0625C33.0625 26.9375 32.9792 26.8333 32.9375 26.75C32.9375 26.5833 33 26.4583 33.125 26.375C33.25 26.25 33.3125 26.1042 33.3125 25.9375C33.8542 25.9792 34.2083 26 34.375 26C34.5 26 34.6458 26.0417 34.8125 26.125C35.1875 26.375 35.3958 26.6667 35.4375 27C35.4792 27.2917 35.7083 27.5208 36.125 27.6875C36.0417 27.8125 36.0208 27.9792 36.0625 28.1875C36.1042 28.3542 36.1667 28.4792 36.25 28.5625C36.4167 28.4792 36.5625 28.4375 36.6875 28.4375C36.8125 28.4375 36.9583 28.4167 37.125 28.375C37.875 29.125 38.4792 29.625 38.9375 29.875C39.4792 30.375 39.7917 30.6458 39.875 30.6875C39.9167 30.7292 39.9375 30.75 39.9375 30.75C39.9375 30.75 39.9583 30.7708 40 30.8125C40.0417 30.8542 40.1875 31 40.4375 31.25C40.8958 31.8333 41.3333 32.2708 41.75 32.5625C42.1667 32.8542 42.5417 33.2917 42.875 33.875C43.2083 34.3333 43.4583 34.6458 43.625 34.8125C43.7917 34.9792 44.0208 35.2292 44.3125 35.5625C44.4792 35.7292 44.6667 35.8958 44.875 36.0625C45.0417 36.1875 45.2083 36.3542 45.375 36.5625C45.5833 36.8542 45.7708 37.1458 45.9375 37.4375C46.1042 37.6875 46.3125 37.9167 46.5625 38.125C46.8542 38.75 47.1875 39.2083 47.5625 39.5C47.9375 39.75 48.2917 40.1458 48.625 40.6875C48.875 41.0625 49.1875 41.5833 49.5625 42.25C49.9375 42.875 50.2083 43.4167 50.375 43.875C50.4167 44 50.4583 44.125 50.5 44.25C50.5417 44.3333 50.5833 44.4375 50.625 44.5625C50.4167 44.8958 50.2083 45.2292 50 45.5625C49.7917 45.8542 49.5 46.1042 49.125 46.3125C48.8333 46.6875 48.625 47 48.5 47.25C48.375 47.4583 48.2083 47.6667 48 47.875C47.2917 48.2917 46.5833 48.7708 45.875 49.3125C45.1667 49.8125 44.375 50.2083 43.5 50.5C43.3333 50.5833 43.1667 50.6458 43 50.6875C42.7917 50.6875 42.5833 50.7083 42.375 50.75C42.0417 50.8333 41.75 50.9167 41.5 51C41.25 51.0833 40.9375 51.1042 40.5625 51.0625C40.3125 51.0625 40.0417 51.0208 39.75 50.9375C39.4583 50.8542 39.1458 50.7708 38.8125 50.6875C38.2708 50.5208 37.75 50.3333 37.25 50.125C36.75 49.875 36.2083 49.6875 35.625 49.5625C35.1667 49.4375 34.75 49.3125 34.375 49.1875C34 49.0625 33.5833 48.9167 33.125 48.75C32.9167 48.6667 32.7292 48.625 32.5625 48.625C32.3542 48.5833 32.2083 48.4583 32.125 48.25C31.2917 48.0833 30.5 47.8125 29.75 47.4375C28.9583 47.0625 28.2083 46.6875 27.5 46.3125C26.625 45.8542 25.7292 45.4375 24.8125 45.0625C23.8958 44.6458 23 44.2083 22.125 43.75C21.625 43.7083 21.2083 43.5417 20.875 43.25C20.4167 43.2083 19.9792 43.0417 19.5625 42.75C19.1042 42.4583 18.6458 42.25 18.1875 42.125C18.0625 42.5833 18.0625 43.1042 18.1875 43.6875C18.2708 44.2292 18.3542 44.7083 18.4375 45.125C18.4792 45.875 18.4792 46.6667 18.4375 47.5C18.3958 47.7917 18.3542 48.0833 18.3125 48.375C18.2292 48.625 18.1875 48.875 18.1875 49.125C18.2292 49.5 18.2083 49.7917 18.125 50C18 50.1667 17.9792 50.3542 18.0625 50.5625C17.6042 51.1042 17.2917 51.5 17.125 51.75C16.9583 52 16.8125 52.2292 16.6875 52.4375C16.5208 52.6875 16.3542 52.8958 16.1875 53.0625C15.9792 53.2708 15.6875 53.4375 15.3125 53.5625C15.1875 53.5625 15.0833 53.5 15 53.375C14.9167 53.25 14.8333 53.1458 14.75 53.0625C14.6667 52.7292 14.6458 52.3542 14.6875 51.9375C14.6875 51.5208 14.6042 51.1875 14.4375 50.9375C14.5208 50.2708 14.4792 49.6667 14.3125 49.125C14.1458 48.5417 14.0833 47.9375 14.125 47.3125C14.125 47.1875 14.1458 47.0625 14.1875 46.9375C14.2292 46.8125 14.25 46.6875 14.25 46.5625C14.2917 46.3542 14.2917 46.1875 14.25 46.0625C14.2083 45.8958 14.1667 45.7083 14.125 45.5C14.0833 45.25 14.0833 44.9792 14.125 44.6875C14.1667 44.3958 14.1667 44.1042 14.125 43.8125C14.0833 43.2708 14.1458 42.625 14.3125 41.875C14.4375 41.0833 14.3958 40.3958 14.1875 39.8125C13.6042 39.6042 13.0208 39.375 12.4375 39.125C11.8125 38.8333 11.2083 38.6042 10.625 38.4375C10.375 38.2708 10.1042 38.1042 9.8125 37.9375C9.47917 37.7708 9.16667 37.6458 8.875 37.5625C8.45833 37.3125 8.125 37.125 7.875 37C7.625 36.8333 7.375 36.6458 7.125 36.4375C6.54167 36.1458 5.97917 35.9375 5.4375 35.8125C4.85417 35.6458 4.22917 35.4375 3.5625 35.1875C2.97917 34.6458 2.27083 34.1042 1.4375 33.5625C1.47917 33.2708 1.39583 33.0417 1.1875 32.875C0.979167 32.6667 1 32.375 1.25 32C1.375 32 1.5 31.9583 1.625 31.875C1.70833 31.75 1.85417 31.7292 2.0625 31.8125C2.27083 31.6042 2.45833 31.4375 2.625 31.3125C2.79167 31.1875 2.97917 31.0833 3.1875 31C3.52083 30.9167 3.91667 30.9583 4.375 31.125C4.79167 31.25 5.1875 31.2083 5.5625 31C5.77083 30.9167 5.97917 30.8958 6.1875 30.9375C6.35417 30.9792 6.52083 30.9583 6.6875 30.875C6.89583 30.7917 7.10417 30.6875 7.3125 30.5625C7.52083 30.3958 7.79167 30.3125 8.125 30.3125C8.25 30.3125 8.41667 30.3542 8.625 30.4375C8.79167 30.4792 8.97917 30.5417 9.1875 30.625C9.8125 30.7917 10.25 30.9167 10.5 31C10.75 31.0833 11.0208 31.1667 11.3125 31.25C11.6458 31.5417 11.875 31.6875 12 31.6875C12.0833 31.6875 12.1667 31.7083 12.25 31.75C12.5 31.875 12.8125 32.0208 13.1875 32.1875C13.5208 32.3125 13.7917 32.4375 14 32.5625ZM31.625 13C31.75 12.9583 32 13 32.375 13.125C32.625 13.3333 32.8958 13.4583 33.1875 13.5C33.3542 13.5833 33.5 13.6667 33.625 13.75C33.75 13.7917 33.9167 13.8333 34.125 13.875C34.375 13.9583 34.6667 14 35 14C35.3333 13.9583 35.6458 13.9583 35.9375 14C36.3958 14.0833 36.8542 14.1458 37.3125 14.1875C37.7292 14.2292 38.1667 14.2708 38.625 14.3125C39.0833 14.3125 39.6042 14.3542 40.1875 14.4375C40.7708 14.5208 41.2917 14.6042 41.75 14.6875C42.0417 14.5208 42.3542 14.4167 42.6875 14.375C43.0208 14.3333 43.2917 14.1875 43.5 13.9375C43.375 13.1042 43.1875 12.4375 42.9375 11.9375C42.6458 11.4375 42.25 10.9583 41.75 10.5C41.5833 10.125 41.4375 9.875 41.3125 9.75C41.1875 9.58333 41.0208 9.33333 40.8125 9C40.7292 8.91667 40.6458 8.83333 40.5625 8.75C40.4792 8.66667 40.3958 8.58333 40.3125 8.5C40.0625 8.04167 39.8958 7.77083 39.8125 7.6875C39.7292 7.5625 39.6458 7.41667 39.5625 7.25C39.1042 6.54167 38.625 6 38.125 5.625C37.8333 5.25 37.5833 5 37.375 4.875C37.125 4.70833 36.8958 4.375 36.6875 3.875C36.3542 3.58333 36.0833 3.29167 35.875 3C35.625 2.66667 35.3333 2.35417 35 2.0625C35 1.85417 35.0417 1.6875 35.125 1.5625C35.2083 1.4375 35.2917 1.29167 35.375 1.125C35.7083 1 36.0625 0.979167 36.4375 1.0625C36.7708 1.14583 37.0833 1.29167 37.375 1.5C37.6667 1.70833 37.8333 1.8125 37.875 1.8125C37.9167 1.8125 37.9583 1.83333 38 1.875C38.1667 2 38.3333 2.16667 38.5 2.375C38.625 2.54167 38.7708 2.6875 38.9375 2.8125C39.3125 3.02083 39.5 3.1875 39.5 3.3125C39.5 3.4375 39.5417 3.54167 39.625 3.625C39.8333 4 40 4.27083 40.125 4.4375C40.25 4.5625 40.4167 4.79167 40.625 5.125C40.875 5.58333 41.0417 5.85417 41.125 5.9375C41.2083 6.02083 41.2708 6.10417 41.3125 6.1875C41.8958 6.72917 42.375 7.22917 42.75 7.6875C43.0833 8.10417 43.5417 8.5625 44.125 9.0625C44.25 9.22917 44.375 9.39583 44.5 9.5625C44.625 9.72917 44.7917 9.875 45 10C45.25 10.375 45.5 10.6875 45.75 10.9375C46 11.1458 46.2917 11.3958 46.625 11.6875C46.75 11.9375 46.9375 12.2083 47.1875 12.5C47.3958 12.7917 47.5833 13.1042 47.75 13.4375C47.8333 13.6042 47.9375 13.7917 48.0625 14C48.1458 14.1667 48.1875 14.3542 48.1875 14.5625C48.2708 15.0625 48.2292 15.5208 48.0625 15.9375C47.8958 16.3542 47.7708 16.75 47.6875 17.125C47.4375 17.2917 47.2292 17.5 47.0625 17.75C46.6042 18.125 46.0625 18.3958 45.4375 18.5625C44.8125 18.7292 44.1458 18.8958 43.4375 19.0625C43.6458 19.3958 43.9167 19.7083 44.25 20C44.5833 20.2917 44.8542 20.6667 45.0625 21.125C45.8542 21.9583 46.625 22.8542 47.375 23.8125C48.0833 24.7292 48.8333 25.6667 49.625 26.625C49.75 26.75 49.8542 26.875 49.9375 27C50.0208 27.125 50.0417 27.2292 50 27.3125C50.25 27.5208 50.3958 27.8125 50.4375 28.1875C50.5208 28.5208 50.5208 28.8958 50.4375 29.3125C50.2292 29.7292 50.0833 30.1042 50 30.4375C49.9167 30.7708 49.7917 31.1042 49.625 31.4375C49.5 32.1458 49.1875 32.7292 48.6875 33.1875C48.1875 33.6875 47.6042 34.1042 46.9375 34.4375C46.6042 34.5625 46.2917 34.6458 46 34.6875C45.7083 34.7708 45.375 34.8542 45 34.9375C44.6667 34.9792 44.3958 35.0417 44.1875 35.125C43.9375 35.2083 43.7083 35.2083 43.5 35.125C43.375 35.2083 43.25 35.2292 43.125 35.1875C42.9583 35.1458 42.7917 35.125 42.625 35.125C42.0417 35.1667 41.4167 35.1042 40.75 34.9375C40.0833 34.8125 39.4792 34.625 38.9375 34.375C38.7708 34.2917 38.5625 34.125 38.3125 33.875C38.1875 33.7917 38.0625 33.7292 37.9375 33.6875C37.8125 33.6458 37.7083 33.5833 37.625 33.5C37.5 33.4167 37.375 33.2917 37.25 33.125C37.125 32.9583 37 32.8125 36.875 32.6875C36.5833 32.4792 36.3333 32.25 36.125 32C35.875 31.7083 35.625 31.4375 35.375 31.1875C35.25 31.0625 35.1042 30.9583 34.9375 30.875C34.7708 30.75 34.6458 30.5833 34.5625 30.375C34.2708 30.2083 34.0417 30.0208 33.875 29.8125C33.6667 29.6042 33.4583 29.375 33.25 29.125C32.375 28.4167 31.6458 27.5417 31.0625 26.5C30.4792 25.4583 29.8125 24.5208 29.0625 23.6875C28.9375 23.3958 28.7917 23.1458 28.625 22.9375C28.4583 22.7292 28.2917 22.5208 28.125 22.3125C27.6667 21.7708 27.5208 21.2083 27.6875 20.625C27.8542 20.0417 28 19.5 28.125 19C28.5 18.5833 28.875 18.1875 29.25 17.8125C29.625 17.3958 30.0417 17.0417 30.5 16.75C30.4583 16.4583 30.4583 16.125 30.5 15.75C30.5 15.375 30.4583 14.9792 30.375 14.5625C30.375 14.4375 30.3542 14.3125 30.3125 14.1875C30.2292 14.0625 30.1875 13.9583 30.1875 13.875C30.3958 13.25 30.7083 12.9375 31.125 12.9375L31.625 13ZM32.0625 21.1875C32.6042 22.3125 33.25 23.3333 34 24.25C34.7083 25.1667 35.4792 26.0417 36.3125 26.875C36.5208 27.0833 36.7292 27.3125 36.9375 27.5625C37.1042 27.7708 37.2917 27.9583 37.5 28.125C37.7083 28.2917 37.9583 28.4583 38.25 28.625C38.5417 28.75 38.8125 28.875 39.0625 29C39.2292 29.0833 39.375 29.1667 39.5 29.25C39.5833 29.3333 39.6875 29.4167 39.8125 29.5C40.0208 29.5833 40.2292 29.625 40.4375 29.625C40.6458 29.5833 40.875 29.5625 41.125 29.5625C41.3333 29.5625 41.5417 29.5625 41.75 29.5625C41.9583 29.5625 42.1667 29.5417 42.375 29.5C42.8333 29.375 43.2917 29.3125 43.75 29.3125C44.0833 29.3125 44.5 29.2917 45 29.25C45.4583 29.1667 45.7708 29 45.9375 28.75C46.1042 28.5 46.1458 28.25 46.0625 28C45.9792 27.7083 45.9167 27.4583 45.875 27.25C44.75 25.7917 43.5833 24.4167 42.375 23.125C41.125 21.8333 39.7292 20.6875 38.1875 19.6875C37.1042 19.7708 36.0625 19.7917 35.0625 19.75C34.0208 19.6667 33.0625 19.75 32.1875 20C32.1042 20.1667 32.0833 20.375 32.125 20.625C32.125 20.8333 32.1042 21.0208 32.0625 21.1875Z" fill="white"/>
</svg>
